ModelForces
version=1
nRows=4
nColumns=155
inDegrees=no

This file contains the forces exerted on a model during a simulation.

A force is a generalized force, meaning that it can be either a force (N) or a torque (Nm).

Units are S.I. units (second, meters, Newtons, ...)
Angles are in degrees.

endheader
time	glut_med1_r	glut_med2_r	glut_med3_r	glut_min1_r	glut_min2_r	glut_min3_r	semimem_r	semiten_r	bifemlh_r	bifemsh_r	sar_r	add_long_r	add_brev_r	add_mag1_r	add_mag2_r	add_mag3_r	tfl_r	pect_r	grac_r	glut_max1_r	glut_max2_r	glut_max3_r	iliacus_r	psoas_r	quad_fem_r	gem_r	peri_r	rect_fem_r	vas_med_r	vas_int_r	vas_lat_r	med_gas_r	lat_gas_r	soleus_r	tib_post_r	flex_dig_r	flex_hal_r	tib_ant_r	per_brev_r	per_long_r	per_tert_r	ext_dig_r	ext_hal_r	glut_med1_l	glut_med2_l	glut_med3_l	glut_min1_l	glut_min2_l	glut_min3_l	semimem_l	semiten_l	bifemlh_l	bifemsh_l	sar_l	add_long_l	add_brev_l	add_mag1_l	add_mag2_l	add_mag3_l	tfl_l	pect_l	grac_l	glut_max1_l	glut_max2_l	glut_max3_l	iliacus_l	psoas_l	quad_fem_l	gem_l	peri_l	rect_fem_l	vas_med_l	vas_int_l	vas_lat_l	med_gas_l	lat_gas_l	soleus_l	tib_post_l	flex_dig_l	flex_hal_l	tib_ant_l	per_brev_l	per_long_l	per_tert_l	ext_dig_l	ext_hal_l	ercspn_r	ercspn_l	intobl_r	intobl_l	extobl_r	extobl_l	femur_lat_meniscii_r.femur_lat_r.force.X	femur_lat_meniscii_r.femur_lat_r.force.Y	femur_lat_meniscii_r.femur_lat_r.force.Z	femur_lat_meniscii_r.femur_lat_r.torque.X	femur_lat_meniscii_r.femur_lat_r.torque.Y	femur_lat_meniscii_r.femur_lat_r.torque.Z	femur_lat_meniscii_r.meniscus_lat_r.force.X	femur_lat_meniscii_r.meniscus_lat_r.force.Y	femur_lat_meniscii_r.meniscus_lat_r.force.Z	femur_lat_meniscii_r.meniscus_lat_r.torque.X	femur_lat_meniscii_r.meniscus_lat_r.torque.Y	femur_lat_meniscii_r.meniscus_lat_r.torque.Z	femur_med_meniscii_r.femur_med_r.force.X	femur_med_meniscii_r.femur_med_r.force.Y	femur_med_meniscii_r.femur_med_r.force.Z	femur_med_meniscii_r.femur_med_r.torque.X	femur_med_meniscii_r.femur_med_r.torque.Y	femur_med_meniscii_r.femur_med_r.torque.Z	femur_med_meniscii_r.meniscus_med_r.force.X	femur_med_meniscii_r.meniscus_med_r.force.Y	femur_med_meniscii_r.meniscus_med_r.force.Z	femur_med_meniscii_r.meniscus_med_r.torque.X	femur_med_meniscii_r.meniscus_med_r.torque.Y	femur_med_meniscii_r.meniscus_med_r.torque.Z	femur_med_tibia_r.tibia_upper_r.force.X	femur_med_tibia_r.tibia_upper_r.force.Y	femur_med_tibia_r.tibia_upper_r.force.Z	femur_med_tibia_r.tibia_upper_r.torque.X	femur_med_tibia_r.tibia_upper_r.torque.Y	femur_med_tibia_r.tibia_upper_r.torque.Z	femur_med_tibia_r.femur_med_r.force.X	femur_med_tibia_r.femur_med_r.force.Y	femur_med_tibia_r.femur_med_r.force.Z	femur_med_tibia_r.femur_med_r.torque.X	femur_med_tibia_r.femur_med_r.torque.Y	femur_med_tibia_r.femur_med_r.torque.Z	femur_lat_tibia_r.tibia_upper_r.force.X	femur_lat_tibia_r.tibia_upper_r.force.Y	femur_lat_tibia_r.tibia_upper_r.force.Z	femur_lat_tibia_r.tibia_upper_r.torque.X	femur_lat_tibia_r.tibia_upper_r.torque.Y	femur_lat_tibia_r.tibia_upper_r.torque.Z	femur_lat_tibia_r.femur_lat_r.force.X	femur_lat_tibia_r.femur_lat_r.force.Y	femur_lat_tibia_r.femur_lat_r.force.Z	femur_lat_tibia_r.femur_lat_r.torque.X	femur_lat_tibia_r.femur_lat_r.torque.Y	femur_lat_tibia_r.femur_lat_r.torque.Z	aACL_R	pACL_R	aPCL_R	pPCL_R	aMCL_R	mMCL_R	pMCL_R	aLCL_R	mLCL_R	pLCL_R	aPCL_L	pPCL_L	aMCL_L	aLCL_L
      0.21048410	      9.68788628	      7.13164798	      7.65573201	      3.31438339	      3.89051413	      4.09594484	      0.00000000	    168.43623266	    169.71944723	    326.33551114	    124.67475635	      7.08478473	      5.15141242	      3.66853526	      3.10088453	      5.15822692	      3.06123931	      2.79464903	     95.09253673	      4.60260404	      6.99903184	      5.24612586	     25.31766141	     15.98926303	      4.54259501	      3.28924739	      5.55782127	    114.85820189	     40.74407087	    167.31297670	     55.47911380	      0.00000000	      0.00000000	      0.00000000	      0.00000000	      0.00000000	      0.00000000	     33.60934754	      2.63689074	      4.90063098	     23.99209966	     49.46571531	     11.20633186	      9.68788628	      7.13164798	      7.65573201	      3.31438339	      3.89051413	      4.09594484	     10.60085523	      5.22942505	     10.23084903	      9.03999577	      1.89244295	      7.08478473	      5.15141242	      3.66853526	      3.10088453	      5.15822692	      4.82203459	      2.79464903	      1.94844238	      4.60260404	      6.99903184	      5.24612586	     25.31766141	     15.98926303	      4.54259501	      3.28924739	      5.55782127	     14.15912632	      0.00000000	      0.00000000	      0.00000000	     19.28659718	      9.00850893	     42.85109979	     47.21854129	      4.15028715	      3.61392182	     11.09560966	      5.86977471	     15.79262638	      2.47331868	      7.85739994	      2.51698356	     31.18660745	     31.18660745	     11.44355745	     11.44355745	     29.00249006	     29.00249006	    201.42249977	    166.67708580	     41.40491892	    -20.47955702	      4.94224069	     79.44155610	   -201.42249977	   -166.67708580	    -41.40491892	      4.49826634	     -6.49616498	      4.55800675	      0.18147921	     -0.00460422	     -0.04522548	      0.01791708	     -0.00291953	      0.07216109	     -0.18147921	      0.00460422	      0.04522548	     -0.00008202	      0.00375908	     -0.00067870	   -997.84307127	   -417.32958068	    284.80950525	     -8.69591906	     22.93945816	      3.35620554	    997.84307127	    417.32958068	   -284.80950525	    121.96651243	    -17.34247834	    401.69369583	    -67.13337240	    -34.09967969	    -21.03702425	      1.08924634	     -2.39182003	      0.40299894	     67.13337240	     34.09967969	     21.03702425	     -9.31709895	      1.67751611	     27.01157367	     -9.85673199	      0.00000000	    972.48177078	    629.22306754	     36.50686129	      0.00000000	      0.00000000	      0.00000000	      0.00000000	      0.00000000	      0.00000000	      0.00000000	      0.00000001	      0.00000000
      0.21057662	      9.68529216	      7.12987559	      7.65380581	      3.31359437	      3.88965462	      4.09484829	      0.00000000	    168.31364487	    169.58612967	    325.58863672	    124.56773366	      7.08300320	      5.15019747	      3.66762997	      3.10009990	      5.15680412	      3.06227066	      2.79397915	     94.99335519	      4.60145784	      6.99728424	      5.24479362	     25.31441816	     15.98557446	      4.54148977	      3.28871571	      5.55638918	    115.01404581	     40.57012160	     90.65562050	     55.29216951	      0.00000000	      0.00000000	      0.00000000	      0.00000000	      0.00000000	      0.00000000	     33.60060924	      2.63540258	      4.90414557	     23.97916068	     49.42707387	     11.19607722	      9.68529216	      7.12987559	      7.65380581	      3.31359437	      3.88965462	      4.09484829	     10.60214073	      5.22803341	     10.22783045	      9.03779424	      1.89199454	      7.08300320	      5.15019747	      3.66762997	      3.10009990	      5.15680412	      4.82115401	      2.79397915	      1.94797254	      4.60145784	      6.99728424	      5.24479362	     25.31441816	     15.98557446	      4.54148977	      3.28871571	      5.55638918	     14.15493237	      0.00000000	      0.00000000	      0.00000000	     19.28218053	      9.00632264	     42.83810324	     47.21285744	      4.14754662	      3.61148796	     11.09242632	      5.86796428	     15.78889387	      2.47274949	      7.85609247	      2.51659402	     31.17916619	     31.17916619	     11.44059413	     11.44059413	     28.99981866	     28.99981866	    202.38035406	    166.61228671	     40.08862619	    -19.94971363	      4.95234681	     79.82694595	   -202.38035406	   -166.61228671	    -40.08862619	      4.48737861	     -6.47328291	      4.55308399	      0.16085028	     -0.00480865	     -0.04239174	      0.01677893	     -0.00258025	      0.06395424	     -0.16085028	      0.00480865	      0.04239174	     -0.00006181	      0.00338698	     -0.00061467	   -989.24016687	   -411.89228116	    284.43121179	     -8.61521248	     22.82046413	      3.28872914	    989.24016687	    411.89228116	   -284.43121179	    121.73002276	    -17.21520583	    398.23709394	    -67.85654593	    -34.42041931	    -21.14092856	      1.09764417	     -2.41308703	      0.40777712	     67.85654593	     34.42041931	     21.14092856	     -9.36606269	      1.69413234	     27.30212415	     -9.64478730	      0.00000000	    973.29795100	    629.30506491	     36.21864596	      0.00000000	      0.00000000	      0.00000000	      0.00000000	      0.00000000	      0.00000000	      0.00000000	      0.00000001	      0.00000000
      0.21079570	      9.67916171	      7.12568710	      7.64925389	      3.31172974	      3.88762347	      4.09225701	      0.00000000	    168.07486548	    169.31948108	    324.22938907	    124.36755037	      7.07879316	      5.14732628	      3.66549053	      3.09824572	      5.15344184	      3.06411699	      2.79239609	     94.80342752	      4.59874919	      6.99315440	      5.24164534	     25.30675393	     15.97685800	      4.53887789	      3.28745931	      5.55300063	    115.36962981	     40.24797253	     73.36607860	     55.02166188	      0.00000000	      0.00000000	      0.00000000	      0.00000000	      0.00000000	      0.00000000	     33.57673089	      2.63231675	      4.91286177	     23.94857786	     49.33517040	     11.17125108	      9.67916171	      7.12568710	      7.64925389	      3.31172974	      3.88762347	      4.09225701	     10.60509012	      5.22474476	     10.22069610	      9.03259161	      1.89093484	      7.07879316	      5.14732628	      3.66549053	      3.09824572	      5.15344184	      4.81907308	      2.79239609	      1.94686220	      4.59874919	      6.99315440	      5.24164534	     25.30675393	     15.97685800	      4.53887789	      3.28745931	      5.55300063	     14.14502103	      0.00000000	      0.00000000	      0.00000000	     19.27172361	      9.00114765	     42.80737708	     47.19942365	      4.14106732	      3.60573726	     11.08490319	      5.86368549	     15.78007083	      2.47140444	      7.85299363	      2.51566950	     31.16158097	     31.16158097	     11.43359136	     11.43359136	     28.99350582	     28.99350582	    210.07740120	    168.42969681	     36.85567752	    -18.68613537	      5.10022427	     82.91330637	   -210.07740120	   -168.42969681	    -36.85567752	      4.50290417	     -6.55158950	      4.56383620	      0.11562893	     -0.00490531	     -0.03455157	      0.01365548	     -0.00184665	      0.04598551	     -0.11562893	      0.00490531	      0.03455157	     -0.00003100	      0.00253728	     -0.00048841	   -972.94751487	   -400.39466623	    283.25320180	     -8.43788170	     22.57524821	      3.12782695	    972.94751487	    400.39466623	   -283.25320180	    121.07559773	    -16.96710389	    391.69933212	    -69.86512492	    -35.07265854	    -21.33059276	      1.11414859	     -2.46805310	      0.41067972	     69.86512492	     35.07265854	     21.33059276	     -9.45660656	      1.73892104	     28.11264706	     -9.11830918	      0.00000000	    974.44893770	    627.56763881	     34.66666748	      0.00000000	      0.00000000	      0.00000000	      0.00000000	      0.00000000	      0.00000000	      0.00000000	      0.00000001	      0.00000000
      0.21125130	      9.66646968	      7.11701582	      7.63983028	      3.30786932	      3.88341840	      4.08689247	      0.00000000	    167.78943009	    168.99183596	    322.91358484	    124.12911332	      7.07007734	      5.14138189	      3.66106097	      3.09440715	      5.14648121	      3.06436913	      2.78911866	     94.57084827	      4.59314163	      6.98460465	      5.23512772	     25.29088754	     15.95881379	      4.53347051	      3.28485844	      5.54596636	    115.82509256	     39.91712884	     73.26170356	     54.94313127	      0.00000000	      0.00000000	      0.00000000	      0.00000000	      0.00000000	      0.00000000	     33.51579468	      2.62711290	      4.93200429	     23.88314546	     49.14249419	     11.11799849	      9.66646968	      7.11701582	      7.63983028	      3.30786932	      3.88341840	      4.08689247	     10.61080537	      5.21793656	     10.20592185	      9.02182065	      1.88874091	      7.07007734	      5.14138189	      3.66106097	      3.09440715	      5.14648121	      4.81476504	      2.78911866	      1.94456347	      4.59314163	      6.98460465	      5.23512772	     25.29088754	     15.95881379	      4.53347051	      3.28485844	      5.54596636	     14.12450047	      0.00000000	      0.00000000	      0.00000000	     19.24998736	      8.99039643	     42.74370747	     47.17160375	      4.12764055	      3.59383643	     11.06932680	      5.85482535	     15.76179365	      2.46861997	      7.84653751	      2.51373782	     31.12517369	     31.12517369	     11.41909406	     11.41909406	     28.98043715	     28.98043715	    228.71642991	    172.92924636	     30.92577147	    -16.39834081	      5.47682129	     90.38442346	   -228.71642991	   -172.92924636	    -30.92577147	      4.56468327	     -6.81120694	      4.59481455	      0.04201158	     -0.00362331	     -0.01722854	      0.00680261	     -0.00068409	      0.01672565	     -0.04201158	      0.00362331	      0.01722854	     -0.00001023	      0.00106212	     -0.00024202	   -951.46589562	   -381.04325052	    281.04518011	     -8.12389213	     22.21911987	      2.80401831	    951.46589562	    381.04325052	   -281.04518011	    119.87548810	    -16.62631244	    383.10878699	    -75.56676958	    -36.41851200	    -22.20989985	      1.15534007	     -2.63835963	      0.39547195	     75.56676958	     36.41851200	     22.20989985	     -9.84316637	      1.87129442	     30.42170176	     -8.47167823	      0.00000000	    976.18231580	    623.17733111	     30.76014326	     18.69811651	      0.00000000	      0.00000000	      0.00000000	      0.00000000	      0.00000000	      0.00000000	      0.00000001	      0.00000000
